<?xml version="1.0" encoding="utf-8"?>
<!-- Generator: Adobe Illustrator 17.0.0, SVG Export Plug-In . SVG Version: 6.00 Build 0)  -->
<!DOCTYPE svg PUBLIC "-//W3C//DTD SVG 1.1//EN" "http://www.w3.org/Graphics/SVG/1.1/DTD/svg11.dtd">
<svg version="1.1" id="Layer_1" xmlns="http://www.w3.org/2000/svg" xmlns:xlink="http://www.w3.org/1999/xlink" x="0px" y="0px"
	 width="61px" height="79px" viewBox="0 0 61 79" enable-background="new 0 0 61 79" xml:space="preserve">
<symbol  id="Games" viewBox="-32 -21.196 64 42.393">
	<path fill="#414042" d="M26.279,13.699C17.826,27.588,5.09,17.926,5.09,17.926c-0.825-0.625-2.347-1.137-3.382-1.141h-3.411
		c-1.035-0.004-2.558,0.51-3.383,1.135c0,0-12.736,9.664-21.188-4.225c-8.452-13.883-5.047-29.004-5.047-29.004
		c0.599-3.701,2.564-6.172,6.277-5.861c3.701,0.309,11.734,9.969,11.734,9.969c0.663,0.795,2.051,1.445,3.086,1.445l20.447,0.004
		c1.035,0,2.424-0.65,3.086-1.445c0,0,8.034-9.66,11.74-9.969c3.707-0.313,5.68,2.16,6.271,5.861
		C31.319-15.305,34.731-0.188,26.279,13.699z M-6.547,8.135V3.777V3.402h-0.375h-4.375v-4.375v-0.375h-0.375h-4.367h-0.375v0.375
		v4.375h-4.371h-0.376v0.375v4.357V8.51h0.376h4.371v4.379v0.375h0.375h4.367h0.375v-0.375V8.51h4.375h0.375V8.135z M12.429-2.422
		c-1.921,0-3.469,1.551-3.469,3.471c0,1.92,1.547,3.471,3.469,3.471c1.913,0,3.473-1.551,3.473-3.471
		C15.901-0.871,14.341-2.422,12.429-2.422z M12.429,7.125c-1.921,0-3.469,1.553-3.469,3.473c0,1.92,1.547,3.469,3.469,3.469
		c1.913,0,3.473-1.549,3.473-3.469C15.901,8.678,14.341,7.125,12.429,7.125z M21.072,2c-1.921,0-3.469,1.553-3.469,3.473
		c0,1.92,1.547,3.469,3.469,3.469c1.913,0,3.473-1.549,3.473-3.469C24.544,3.553,22.984,2,21.072,2z"/>
</symbol>
<use xlink:href="#Games"  width="64" height="42.393" id="XMLID_1_" x="-32" y="-21.196" transform="matrix(0.8987 0 0 -0.9695 31.3233 37.9245)" overflow="visible"/>
</svg>
